<svg xmlns="http://www.w3.org/2000/svg" viewBox="0 0 333333 333333" shape-rendering="geometricPrecision" text-rendering="geometricPrecision" image-rendering="optimizeQuality" fill-rule="evenodd" clip-rule="evenodd"><path d="M166667 0c92048 0 166667 74619 166667 166667s-74619 166667-166667 166667S0 258715 0 166667 74619 0 166667 0zm-57698 203357c-11551 0-20938 9418-20938 20897 0 11537 9386 20857 20938 20857 11587 0 20967-9320 20967-20857 0-11479-9378-20897-20967-20897zm-20918-61899v30148c19632 0 38081 7677 51977 21585 13883 13868 21548 32406 21548 52114h30276c0-57254-46585-103838-103801-103838v-9zm38-53431v30154c70007 0 126979 57031 126979 127116l30235 3c0-86697-70539-157270-157212-157270l-2-3z" fill="#f26522"/></svg>